<svg xmlns="http://www.w3.org/2000/svg" xmlns:xlink="http://www.w3.org/1999/xlink" width="600" zoomAndPan="magnify" viewBox="0 0 450 449.999984" height="600" preserveAspectRatio="xMidYMid meet" version="1.0"><defs><g/><clipPath id="c4fe249d75"><path d="M 85 300 L 126 300 L 126 338.167969 L 85 338.167969 Z M 85 300 " clip-rule="nonzero"/></clipPath><clipPath id="43c09d5829"><path d="M 59.929688 298 L 152 298 L 152 312 L 59.929688 312 Z M 59.929688 298 " clip-rule="nonzero"/></clipPath><clipPath id="8885f705ee"><path d="M 65.628906 213.433594 L 198.378906 213.433594 L 198.378906 280 L 65.628906 280 Z M 65.628906 213.433594 " clip-rule="nonzero"/></clipPath></defs><path fill="#00507d" d="M 140.40625 277.773438 C 141.328125 276.882812 142.246094 275.96875 142.9375 275.128906 C 143.015625 275.078125 143.066406 275 143.117188 274.949219 C 137.46875 274.289062 132.125 271.796875 127.316406 270.117188 L 126.117188 272.992188 C 125.402344 273.5 124.558594 273.984375 123.6875 274.492188 C 124.300781 274.644531 124.914062 274.824219 125.503906 274.976562 C 130.589844 276.300781 136.417969 278.5625 140.40625 277.773438 Z M 140.40625 277.773438 " fill-opacity="1" fill-rule="nonzero"/><path fill="#00507d" d="M 125.015625 279.859375 C 123.226562 279.378906 120.722656 278.664062 118.140625 278.183594 C 116.707031 279.554688 115.738281 281.257812 115.738281 283.550781 C 116.582031 283.34375 117.425781 283.167969 118.269531 283.015625 C 122.945312 282.148438 127.523438 281.945312 132.175781 283.066406 C 133.402344 283.34375 134.578125 283.726562 135.726562 284.183594 C 135.523438 283.828125 135.703125 283.421875 136.316406 282.53125 C 132.25 282.199219 127.367188 280.496094 125.015625 279.859375 Z M 125.015625 279.859375 " fill-opacity="1" fill-rule="nonzero"/><path fill="#00507d" d="M 101.039062 268.082031 C 101.777344 268.871094 101.421875 268.640625 102.367188 269.328125 C 103.925781 269.074219 103.746094 268.640625 105.359375 268.210938 C 104.691406 269.835938 104.4375 270.269531 105.203125 271.871094 C 106.378906 270.726562 107.300781 268.132812 107.453125 266.300781 C 107.863281 261.164062 117.320312 261.035156 121.027344 256.253906 L 131.40625 256.101562 C 131.816406 257.679688 130.5625 261.265625 129.386719 264.417969 C 130.128906 264.675781 130.871094 264.929688 131.585938 265.207031 C 134.269531 266.277344 136.878906 267.445312 139.640625 268.363281 C 144.242188 269.890625 148.355469 270.246094 152.523438 269.253906 C 152.394531 268.515625 152.242188 267.777344 152.039062 267.089844 C 151.21875 264.242188 149.148438 263.171875 148.972656 260.5 C 151.347656 258.007812 151.015625 259.839844 153.878906 260.019531 C 155.3125 258.3125 154.800781 257.246094 156.613281 257.347656 C 157.789062 257.398438 157.277344 258.492188 158.019531 256.8125 C 158.277344 256.203125 158.402344 255.132812 158.710938 254.320312 C 160.066406 250.757812 160.703125 248.011719 157.558594 245.570312 C 155.234375 243.761719 150.273438 242.925781 147.871094 245.316406 C 144.777344 248.417969 147.359375 251.597656 143.472656 253.53125 C 139.230469 253.355469 139.539062 248.671875 130.949219 248.699219 C 120.902344 248.722656 113.84375 252.589844 107.480469 258.925781 C 102.699219 263.683594 99.324219 261.113281 99.554688 266.554688 Z M 101.039062 268.082031 " fill-opacity="1" fill-rule="nonzero"/><g clip-path="url(#c4fe249d75)"><path fill="#00507d" d="M 119.546875 309.851562 C 121.488281 307.15625 123.433594 303.542969 125.503906 300.414062 C 120.875 300.566406 116.53125 301.507812 112.3125 302.652344 C 112.132812 303.136719 111.953125 303.644531 111.75 304.179688 L 110.445312 306.722656 C 108.324219 309.320312 108.195312 308.734375 104.796875 310.207031 C 95.285156 316.390625 99.273438 316.773438 92.804688 322.191406 C 90.324219 324.277344 89.097656 322.671875 87.027344 324.554688 C 85.929688 328.398438 88.5625 329.59375 85.597656 333.890625 C 85.46875 336.28125 85.265625 336.792969 86.722656 338.164062 C 88.664062 337.378906 87.285156 337.324219 89.96875 333.992188 C 94.953125 327.761719 93.085938 326.082031 99.324219 323.359375 C 104.183594 321.25 109.269531 315.371094 112.414062 314.535156 C 118.089844 312.980469 116.300781 313.667969 119.546875 309.851562 Z M 119.546875 309.851562 " fill-opacity="1" fill-rule="nonzero"/></g><path fill="#00507d" d="M 168.859375 263.757812 C 167.378906 263.808594 167.964844 263.65625 167.25 264.699219 C 167.171875 264.597656 167.121094 264.445312 167.097656 264.34375 C 167.042969 264.265625 166.96875 264.089844 166.917969 263.988281 L 166.074219 262.613281 C 164.820312 265.15625 164.308594 264.214844 163.082031 266.226562 C 162.238281 267.574219 162.214844 269.429688 161.34375 270.675781 C 160.527344 271.847656 155.183594 275.433594 153.726562 275.664062 C 153.546875 275.050781 153.394531 274.390625 153.265625 273.730469 C 150.964844 274.644531 148.691406 275.050781 146.441406 275.105469 C 147.335938 277.34375 148.742188 279.226562 149.789062 281.386719 C 151.886719 283.878906 153.90625 282.964844 156.027344 281.488281 C 158.992188 280.113281 160.933594 277.164062 162.902344 274.441406 C 165.945312 270.269531 175.429688 272.078125 168.859375 263.757812 Z M 168.859375 263.757812 " fill-opacity="1" fill-rule="nonzero"/><path fill="#00507d" d="M 148.382812 295.734375 C 145.953125 294.183594 139.050781 290.390625 133.019531 288.96875 C 128.648438 287.925781 124.328125 288.128906 119.929688 288.941406 C 119.085938 289.09375 118.242188 289.273438 117.398438 289.476562 C 117.550781 289.933594 117.628906 290.492188 117.628906 291.359375 C 116.988281 292.503906 116.425781 293.46875 115.96875 294.335938 C 121.054688 293.292969 126.015625 293.113281 131.152344 294.335938 C 137.492188 295.835938 143.140625 299.269531 148.128906 303.367188 C 150.65625 301.433594 150.734375 299.652344 148.867188 296.292969 C 148.765625 296.140625 148.585938 295.9375 148.382812 295.734375 Z M 148.382812 295.734375 " fill-opacity="1" fill-rule="nonzero"/><path fill="#00507d" d="M 125.375 308.785156 L 124.632812 310.207031 C 123.152344 312.574219 121.871094 313.132812 119.417969 314.6875 C 118.292969 315.195312 118.113281 315.015625 117.21875 315.703125 C 115.074219 316.492188 115.046875 317.789062 116.121094 319.644531 C 117.832031 322.570312 120.03125 327.582031 121.976562 330.8125 C 125.273438 334.171875 126.296875 332.773438 124.710938 329.109375 C 124.199219 326.285156 123.304688 321.605469 124.683594 318.476562 C 125.707031 316.1875 128.648438 315.066406 130.488281 313.542969 C 135.371094 310.84375 140.175781 307.917969 145.109375 305.25 L 145.316406 305.144531 C 141.507812 303.214844 137.925781 301.941406 134.550781 301.230469 C 130.949219 303.746094 128.316406 305.070312 125.375 308.785156 Z M 125.375 308.785156 " fill-opacity="1" fill-rule="nonzero"/><path fill="#00b28b" d="M 164.898438 267.929688 L 163.796875 268.4375 C 155.667969 272.203125 148.382812 272.535156 139.769531 270.015625 C 136.289062 269 132.941406 267.648438 129.542969 266.453125 C 126.242188 265.308594 122.820312 264.445312 119.289062 264.011719 C 112.542969 263.171875 105.972656 266.605469 105.921875 270.066406 C 118.523438 256.40625 141.300781 285.40625 164.898438 267.929688 Z M 164.898438 267.929688 " fill-opacity="1" fill-rule="evenodd"/><g clip-path="url(#43c09d5829)"><path fill="#f26e21" d="M 151.835938 310.996094 C 145.773438 305.707031 138.796875 301.152344 130.871094 299.269531 C 124.734375 297.820312 118.832031 298.125 112.71875 299.472656 C 104.515625 301.304688 96.769531 304.789062 88.535156 306.445312 C 76.136719 308.886719 68.238281 306.722656 59.929688 303.746094 C 95.234375 326.742188 112.976562 286.652344 151.835938 310.996094 Z M 151.835938 310.996094 " fill-opacity="1" fill-rule="evenodd"/></g><path fill="#de1863" d="M 105.871094 286.882812 C 89.304688 289.246094 77.75 295.148438 60.363281 291.054688 C 88.230469 304.789062 117.015625 277.191406 149.378906 297.386719 C 139.769531 287.035156 121.359375 284.667969 105.871094 286.882812 Z M 105.871094 286.882812 " fill-opacity="1" fill-rule="evenodd"/><path fill="#e5be20" d="M 113.5625 278.386719 C 120.796875 280.039062 141.53125 286.21875 145.1875 280.394531 C 129.566406 284.109375 100.882812 266.632812 84.34375 275.128906 C 91.144531 272.992188 105.996094 276.65625 113.5625 278.386719 Z M 113.5625 278.386719 " fill-opacity="1" fill-rule="evenodd"/><g clip-path="url(#8885f705ee)"><path fill="#003479" d="M 198.460938 279.84375 L 193.566406 279.84375 C 193.566406 245.921875 165.972656 218.324219 132.050781 218.324219 C 98.132812 218.324219 70.535156 245.921875 70.535156 279.84375 L 65.640625 279.84375 C 65.640625 262.101562 72.550781 245.425781 85.09375 232.882812 C 97.636719 220.339844 114.3125 213.433594 132.050781 213.433594 C 149.792969 213.433594 166.464844 220.339844 179.011719 232.882812 C 191.554688 245.425781 198.460938 262.105469 198.460938 279.84375 Z M 198.460938 279.84375 " fill-opacity="1" fill-rule="nonzero"/></g><g fill="#00507d" fill-opacity="1"><g transform="translate(158.247854, 317.936616)"><g><path d="M 21.6875 -10.953125 C 21.71875 -10.128906 21.679688 -9.363281 21.578125 -8.65625 C 21.515625 -8.28125 21.441406 -7.90625 21.359375 -7.53125 C 21.285156 -7.164062 21.1875 -6.8125 21.0625 -6.46875 C 20.769531 -5.695312 20.429688 -5.007812 20.046875 -4.40625 C 19.609375 -3.695312 19.113281 -3.070312 18.5625 -2.53125 C 17.957031 -1.925781 17.289062 -1.429688 16.5625 -1.046875 C 15.757812 -0.671875 14.929688 -0.414062 14.078125 -0.28125 C 13.242188 -0.1875 12.394531 -0.222656 11.53125 -0.390625 C 10.769531 -0.546875 10.003906 -0.800781 9.234375 -1.15625 C 8.535156 -1.5 7.882812 -1.925781 7.28125 -2.4375 C 6.738281 -2.914062 6.207031 -3.441406 5.6875 -4.015625 C 5.21875 -4.585938 4.804688 -5.1875 4.453125 -5.8125 C 4.097656 -6.4375 3.78125 -7.066406 3.5 -7.703125 C 3.238281 -8.335938 3.007812 -8.984375 2.8125 -9.640625 C 2.625 -10.296875 2.453125 -10.957031 2.296875 -11.625 C 2.203125 -12.238281 2.109375 -12.910156 2.015625 -13.640625 C 1.953125 -14.367188 1.921875 -15.039062 1.921875 -15.65625 C 1.921875 -16.988281 2.003906 -18.304688 2.171875 -19.609375 C 2.347656 -20.921875 2.613281 -22.203125 2.96875 -23.453125 C 3.125 -24.085938 3.316406 -24.722656 3.546875 -25.359375 C 3.640625 -25.648438 3.75 -25.960938 3.875 -26.296875 C 4 -26.628906 4.144531 -26.957031 4.3125 -27.28125 C 4.625 -27.945312 5.003906 -28.582031 5.453125 -29.1875 C 5.898438 -29.832031 6.410156 -30.410156 6.984375 -30.921875 C 7.585938 -31.429688 8.253906 -31.875 8.984375 -32.25 C 9.722656 -32.632812 10.523438 -32.890625 11.390625 -33.015625 C 11.804688 -33.085938 12.222656 -33.125 12.640625 -33.125 C 12.765625 -33.125 12.878906 -33.125 12.984375 -33.125 C 13.097656 -33.125 13.207031 -33.109375 13.3125 -33.078125 L 13.640625 -33.078125 L 14.015625 -32.96875 C 14.523438 -32.875 14.972656 -32.726562 15.359375 -32.53125 C 15.742188 -32.34375 16.113281 -32.140625 16.46875 -31.921875 C 16.8125 -31.703125 17.128906 -31.460938 17.421875 -31.203125 C 17.710938 -30.953125 17.984375 -30.679688 18.234375 -30.390625 C 18.492188 -30.140625 18.738281 -29.859375 18.96875 -29.546875 C 19.207031 -29.242188 19.425781 -28.9375 19.625 -28.625 C 20.007812 -28.007812 20.34375 -27.304688 20.625 -26.515625 C 20.914062 -25.710938 21.09375 -24.898438 21.15625 -24.078125 L 16.5625 -23.875 C 16.53125 -24.257812 16.445312 -24.628906 16.3125 -24.984375 C 16.21875 -25.171875 16.128906 -25.367188 16.046875 -25.578125 C 15.972656 -25.785156 15.875 -25.984375 15.75 -26.171875 C 15.238281 -26.972656 14.628906 -27.613281 13.921875 -28.09375 C 13.578125 -28.3125 13.289062 -28.4375 13.0625 -28.46875 C 13.03125 -28.46875 13.015625 -28.46875 13.015625 -28.46875 C 12.953125 -28.507812 12.9375 -28.53125 12.96875 -28.53125 L 12.921875 -28.53125 C 12.859375 -28.53125 12.800781 -28.53125 12.75 -28.53125 C 12.707031 -28.53125 12.671875 -28.53125 12.640625 -28.53125 C 12.441406 -28.53125 12.265625 -28.507812 12.109375 -28.46875 C 11.367188 -28.34375 10.679688 -28.007812 10.046875 -27.46875 C 9.703125 -27.1875 9.414062 -26.867188 9.1875 -26.515625 C 8.90625 -26.128906 8.664062 -25.726562 8.46875 -25.3125 C 8.25 -24.863281 8.050781 -24.375 7.875 -23.84375 C 7.695312 -23.320312 7.546875 -22.789062 7.421875 -22.25 C 7.097656 -21.164062 6.863281 -20.070312 6.71875 -18.96875 C 6.582031 -17.875 6.515625 -16.785156 6.515625 -15.703125 C 6.515625 -15.222656 6.546875 -14.695312 6.609375 -14.125 C 6.671875 -13.507812 6.75 -12.984375 6.84375 -12.546875 C 7.0625 -11.421875 7.363281 -10.414062 7.75 -9.53125 C 8.164062 -8.539062 8.660156 -7.675781 9.234375 -6.9375 C 9.554688 -6.582031 9.875 -6.265625 10.1875 -5.984375 C 10.539062 -5.691406 10.910156 -5.453125 11.296875 -5.265625 C 12.054688 -4.878906 12.789062 -4.734375 13.5 -4.828125 C 13.84375 -4.890625 14.160156 -5.003906 14.453125 -5.171875 C 14.804688 -5.328125 15.109375 -5.535156 15.359375 -5.796875 C 15.648438 -6.078125 15.90625 -6.410156 16.125 -6.796875 C 16.351562 -7.148438 16.546875 -7.550781 16.703125 -8 C 16.796875 -8.21875 16.863281 -8.4375 16.90625 -8.65625 C 16.957031 -8.882812 17 -9.109375 17.03125 -9.328125 C 17.101562 -9.710938 17.117188 -10.160156 17.078125 -10.671875 Z M 21.6875 -10.953125 "/></g></g></g><g fill="#00507d" fill-opacity="1"><g transform="translate(181.888105, 317.936616)"><g><path d="M 13.59375 -32.359375 L 18.1875 -32.25 L 17.796875 -3.78125 L 13.15625 -3.828125 L 13.359375 -15.453125 C 13.191406 -15.421875 13.078125 -15.40625 13.015625 -15.40625 C 12.628906 -15.34375 12.226562 -15.285156 11.8125 -15.234375 C 11.40625 -15.191406 10.992188 -15.140625 10.578125 -15.078125 C 9.941406 -14.984375 9.3125 -14.882812 8.6875 -14.78125 C 8.0625 -14.6875 7.429688 -14.59375 6.796875 -14.5 C 6.859375 -12.101562 6.925781 -9.707031 7 -7.3125 C 7.082031 -4.925781 7.175781 -2.535156 7.28125 -0.140625 L 2.6875 0.046875 C 2.207031 -11.023438 1.953125 -22.113281 1.921875 -33.21875 L 6.515625 -33.21875 C 6.515625 -30.882812 6.53125 -28.535156 6.5625 -26.171875 C 6.59375 -23.816406 6.640625 -21.472656 6.703125 -19.140625 C 7.210938 -19.203125 7.738281 -19.28125 8.28125 -19.375 C 8.820312 -19.476562 9.363281 -19.5625 9.90625 -19.625 C 10.320312 -19.6875 10.753906 -19.75 11.203125 -19.8125 C 11.648438 -19.875 12.078125 -19.921875 12.484375 -19.953125 C 12.804688 -19.984375 13.113281 -20.015625 13.40625 -20.046875 Z M 13.59375 -32.359375 "/></g></g></g><g fill="#00507d" fill-opacity="1"><g transform="translate(202.130663, 317.936616)"><g><path d="M 22.015625 0.625 L 17.515625 1.4375 L 15.5 -9.375 C 14.925781 -9.40625 14.335938 -9.410156 13.734375 -9.390625 C 13.128906 -9.378906 12.507812 -9.375 11.875 -9.375 C 11.257812 -9.375 10.632812 -9.375 10 -9.375 C 9.363281 -9.375 8.726562 -9.390625 8.09375 -9.421875 L 5.59375 -1.390625 L 1.203125 -2.734375 L 11.15625 -34.84375 L 15.609375 -34.546875 Z M 11.828125 -13.96875 C 12.265625 -13.96875 12.722656 -13.972656 13.203125 -13.984375 C 13.679688 -14.003906 14.175781 -14 14.6875 -13.96875 L 12.78125 -24.5 L 9.46875 -13.96875 C 10.238281 -13.96875 11.023438 -13.96875 11.828125 -13.96875 Z M 11.828125 -13.96875 "/></g></g></g><g fill="#00507d" fill-opacity="1"><g transform="translate(225.435924, 317.936616)"><g><path d="M 26.609375 -0.671875 L 22.109375 0.046875 C 21.503906 -3.585938 20.953125 -7.222656 20.453125 -10.859375 C 19.960938 -14.492188 19.492188 -18.148438 19.046875 -21.828125 C 19.015625 -21.796875 18.988281 -21.753906 18.96875 -21.703125 C 18.957031 -21.648438 18.953125 -21.59375 18.953125 -21.53125 C 18.734375 -20.675781 18.507812 -19.800781 18.28125 -18.90625 C 18.0625 -18.007812 17.851562 -17.097656 17.65625 -16.171875 L 16.703125 -12.0625 C 16.609375 -11.613281 16.503906 -11.164062 16.390625 -10.71875 C 16.273438 -10.269531 16.171875 -9.820312 16.078125 -9.375 C 15.984375 -8.925781 15.878906 -8.476562 15.765625 -8.03125 C 15.660156 -7.59375 15.554688 -7.164062 15.453125 -6.75 L 11.0625 -6.5625 L 10.234375 -8.953125 L 9.859375 -10.140625 L 9.46875 -11.34375 L 8.703125 -13.78125 L 8.234375 -15.40625 L 7.515625 -17.859375 C 7.484375 -17.566406 7.46875 -17.269531 7.46875 -16.96875 C 7.46875 -16.664062 7.453125 -16.367188 7.421875 -16.078125 C 7.328125 -13.617188 7.210938 -11.160156 7.078125 -8.703125 C 6.953125 -6.253906 6.78125 -3.785156 6.5625 -1.296875 L 1.96875 -1.71875 C 2.445312 -6.507812 2.738281 -11.359375 2.84375 -16.265625 C 2.957031 -21.179688 3.285156 -26.128906 3.828125 -31.109375 L 8.328125 -31.4375 C 8.773438 -29.8125 9.238281 -28.175781 9.71875 -26.53125 C 10.195312 -24.894531 10.675781 -23.257812 11.15625 -21.625 L 12.640625 -16.75 L 12.875 -15.9375 L 13.15625 -17.234375 C 13.382812 -18.160156 13.609375 -19.078125 13.828125 -19.984375 C 14.054688 -20.890625 14.28125 -21.789062 14.5 -22.6875 C 14.726562 -23.613281 14.96875 -24.53125 15.21875 -25.4375 C 15.476562 -26.34375 15.75 -27.242188 16.03125 -28.140625 C 16.320312 -29.066406 16.617188 -29.984375 16.921875 -30.890625 C 17.222656 -31.796875 17.550781 -32.695312 17.90625 -33.59375 L 22.34375 -33.015625 C 22.957031 -27.597656 23.601562 -22.191406 24.28125 -16.796875 C 24.96875 -11.398438 25.742188 -6.023438 26.609375 -0.671875 Z M 26.609375 -0.671875 "/></g></g></g><g fill="#00507d" fill-opacity="1"><g transform="translate(254.100914, 317.936616)"><g><path d="M 15.75 -24.84375 C 15.84375 -24.164062 15.890625 -23.460938 15.890625 -22.734375 C 15.921875 -21.296875 15.742188 -19.90625 15.359375 -18.5625 L 15.21875 -18.09375 L 15.03125 -17.515625 L 14.9375 -17.28125 L 14.78125 -16.984375 C 14.75 -16.890625 14.707031 -16.800781 14.65625 -16.71875 C 14.613281 -16.644531 14.578125 -16.5625 14.546875 -16.46875 C 14.191406 -15.789062 13.757812 -15.164062 13.25 -14.59375 C 12.738281 -14.019531 12.203125 -13.507812 11.640625 -13.0625 C 11.085938 -12.613281 10.507812 -12.21875 9.90625 -11.875 C 9.363281 -11.550781 8.804688 -11.257812 8.234375 -11 C 7.660156 -10.75 7.085938 -10.53125 6.515625 -10.34375 C 6.515625 -8.613281 6.519531 -6.878906 6.53125 -5.140625 C 6.550781 -3.398438 6.578125 -1.671875 6.609375 0.046875 L 2.015625 0.140625 C 1.910156 -5.535156 1.875 -11.203125 1.90625 -16.859375 C 1.945312 -22.523438 2.046875 -28.203125 2.203125 -33.890625 L 5.03125 -33.84375 C 6.457031 -34 7.828125 -33.820312 9.140625 -33.3125 C 9.867188 -33.050781 10.554688 -32.695312 11.203125 -32.25 C 11.835938 -31.84375 12.410156 -31.351562 12.921875 -30.78125 C 13.460938 -30.226562 13.925781 -29.632812 14.3125 -29 C 14.40625 -28.8125 14.5 -28.632812 14.59375 -28.46875 C 14.6875 -28.3125 14.769531 -28.140625 14.84375 -27.953125 C 14.90625 -27.785156 14.972656 -27.613281 15.046875 -27.4375 C 15.128906 -27.269531 15.203125 -27.085938 15.265625 -26.890625 C 15.328125 -26.734375 15.375 -26.566406 15.40625 -26.390625 C 15.4375 -26.210938 15.484375 -26.046875 15.546875 -25.890625 C 15.585938 -25.703125 15.625 -25.519531 15.65625 -25.34375 C 15.6875 -25.164062 15.71875 -25 15.75 -24.84375 Z M 10.953125 -19.8125 C 11.210938 -20.738281 11.328125 -21.695312 11.296875 -22.6875 C 11.296875 -23.226562 11.265625 -23.707031 11.203125 -24.125 C 11.203125 -24.25 11.1875 -24.363281 11.15625 -24.46875 C 11.125 -24.582031 11.09375 -24.707031 11.0625 -24.84375 C 11.019531 -24.9375 10.988281 -25.035156 10.96875 -25.140625 C 10.957031 -25.253906 10.921875 -25.363281 10.859375 -25.46875 C 10.828125 -25.5625 10.796875 -25.660156 10.765625 -25.765625 C 10.734375 -25.878906 10.703125 -25.984375 10.671875 -26.078125 C 10.609375 -26.179688 10.550781 -26.28125 10.5 -26.375 C 10.457031 -26.46875 10.40625 -26.546875 10.34375 -26.609375 C 10.144531 -26.992188 9.90625 -27.328125 9.625 -27.609375 C 9.300781 -27.929688 8.960938 -28.21875 8.609375 -28.46875 C 8.296875 -28.695312 7.945312 -28.875 7.5625 -29 C 7.269531 -29.125 6.984375 -29.203125 6.703125 -29.234375 C 6.640625 -26.910156 6.59375 -24.59375 6.5625 -22.28125 C 6.53125 -19.96875 6.515625 -17.644531 6.515625 -15.3125 C 7.179688 -15.601562 7.789062 -15.9375 8.34375 -16.3125 C 8.90625 -16.695312 9.378906 -17.128906 9.765625 -17.609375 C 10.046875 -17.929688 10.285156 -18.269531 10.484375 -18.625 C 10.515625 -18.6875 10.535156 -18.738281 10.546875 -18.78125 C 10.566406 -18.832031 10.59375 -18.875 10.625 -18.90625 L 10.71875 -19.1875 L 10.8125 -19.484375 Z M 10.953125 -19.8125 "/></g></g></g><g fill="#00507d" fill-opacity="1"><g transform="translate(272.046447, 317.936616)"><g><path d="M 17.5625 -21.296875 L 13.203125 -22.828125 C 13.554688 -23.753906 13.703125 -24.597656 13.640625 -25.359375 C 13.578125 -26.160156 13.335938 -26.847656 12.921875 -27.421875 C 12.734375 -27.679688 12.476562 -27.9375 12.15625 -28.1875 C 11.863281 -28.375 11.546875 -28.535156 11.203125 -28.671875 C 10.847656 -28.765625 10.523438 -28.8125 10.234375 -28.8125 C 9.921875 -28.78125 9.601562 -28.703125 9.28125 -28.578125 C 8.550781 -28.316406 7.960938 -27.867188 7.515625 -27.234375 C 7.066406 -26.628906 6.78125 -25.894531 6.65625 -25.03125 C 6.5625 -24.164062 6.625 -23.285156 6.84375 -22.390625 C 7.0625 -21.535156 7.445312 -20.675781 8 -19.8125 C 8.46875 -19.019531 9.085938 -18.207031 9.859375 -17.375 C 10.242188 -16.988281 10.648438 -16.585938 11.078125 -16.171875 C 11.503906 -15.753906 11.941406 -15.3125 12.390625 -14.84375 C 12.617188 -14.582031 12.835938 -14.320312 13.046875 -14.0625 C 13.253906 -13.8125 13.46875 -13.539062 13.6875 -13.25 C 14.132812 -12.613281 14.5 -11.976562 14.78125 -11.34375 C 15.101562 -10.601562 15.34375 -9.835938 15.5 -9.046875 C 15.601562 -8.210938 15.601562 -7.398438 15.5 -6.609375 C 15.375 -5.742188 15.117188 -4.945312 14.734375 -4.21875 C 14.359375 -3.414062 13.832031 -2.710938 13.15625 -2.109375 C 11.789062 -0.859375 10.164062 -0.285156 8.28125 -0.390625 C 7.382812 -0.421875 6.539062 -0.625 5.75 -1 C 4.976562 -1.351562 4.273438 -1.816406 3.640625 -2.390625 C 3.066406 -2.960938 2.570312 -3.566406 2.15625 -4.203125 C 1.738281 -4.847656 1.40625 -5.503906 1.15625 -6.171875 L 5.40625 -7.84375 C 5.789062 -6.957031 6.253906 -6.257812 6.796875 -5.75 C 7.335938 -5.269531 7.910156 -5.015625 8.515625 -4.984375 C 9.117188 -4.941406 9.644531 -5.128906 10.09375 -5.546875 C 10.570312 -5.960938 10.859375 -6.523438 10.953125 -7.234375 C 10.984375 -7.578125 10.984375 -7.941406 10.953125 -8.328125 C 10.859375 -8.710938 10.75 -9.078125 10.625 -9.421875 C 10.4375 -9.804688 10.210938 -10.191406 9.953125 -10.578125 C 9.671875 -10.960938 9.351562 -11.34375 9 -11.71875 C 8.613281 -12.101562 8.210938 -12.503906 7.796875 -12.921875 C 7.378906 -13.335938 6.96875 -13.769531 6.5625 -14.21875 C 6.113281 -14.695312 5.671875 -15.195312 5.234375 -15.71875 C 4.804688 -16.25 4.414062 -16.800781 4.0625 -17.375 C 3.71875 -17.976562 3.398438 -18.597656 3.109375 -19.234375 C 2.828125 -19.878906 2.585938 -20.550781 2.390625 -21.25 C 2.003906 -22.71875 1.910156 -24.1875 2.109375 -25.65625 C 2.203125 -26.414062 2.390625 -27.160156 2.671875 -27.890625 C 2.960938 -28.628906 3.347656 -29.316406 3.828125 -29.953125 C 4.816406 -31.296875 6.078125 -32.269531 7.609375 -32.875 C 8.410156 -33.195312 9.238281 -33.375 10.09375 -33.40625 C 10.539062 -33.40625 10.972656 -33.375 11.390625 -33.3125 C 11.484375 -33.3125 11.585938 -33.300781 11.703125 -33.28125 C 11.816406 -33.269531 11.921875 -33.25 12.015625 -33.21875 L 12.640625 -33.015625 C 13.429688 -32.765625 14.164062 -32.398438 14.84375 -31.921875 C 15.15625 -31.671875 15.460938 -31.398438 15.765625 -31.109375 C 16.066406 -30.816406 16.347656 -30.515625 16.609375 -30.203125 C 17.085938 -29.523438 17.460938 -28.796875 17.734375 -28.015625 C 18.003906 -27.234375 18.171875 -26.445312 18.234375 -25.65625 C 18.265625 -24.882812 18.21875 -24.125 18.09375 -23.375 C 17.96875 -22.625 17.789062 -21.929688 17.5625 -21.296875 Z M 17.5625 -21.296875 "/></g></g></g><g fill="#00507d" fill-opacity="1"><g transform="translate(292.384718, 317.936616)"><g/></g></g><g fill="#00507d" fill-opacity="1"><g transform="translate(301.381416, 317.936616)"><g><path d="M 13.203125 -29 C 12.085938 -29 10.976562 -29 9.875 -29 C 8.78125 -29 7.675781 -28.984375 6.5625 -28.953125 L 6.65625 -19.328125 C 7.132812 -19.367188 7.613281 -19.40625 8.09375 -19.4375 C 8.695312 -19.46875 9.285156 -19.5 9.859375 -19.53125 C 10.429688 -19.5625 11.035156 -19.578125 11.671875 -19.578125 L 11.625 -14.984375 C 11.082031 -14.984375 10.539062 -14.96875 10 -14.9375 C 9.457031 -14.90625 8.929688 -14.875 8.421875 -14.84375 C 7.785156 -14.800781 7.210938 -14.75 6.703125 -14.6875 L 6.84375 -0.28125 L 2.25 -0.1875 L 1.921875 -33.5 L 4.5 -33.5 C 5.96875 -33.53125 7.425781 -33.550781 8.875 -33.5625 C 10.332031 -33.582031 11.789062 -33.59375 13.25 -33.59375 Z M 13.203125 -29 "/></g></g></g><g fill="#00507d" fill-opacity="1"><g transform="translate(316.551372, 317.936616)"><g><path d="M 20.96875 -33.3125 C 21.0625 -30.5 21.125 -27.664062 21.15625 -24.8125 C 21.1875 -21.957031 21.054688 -19.09375 20.765625 -16.21875 C 20.703125 -15.488281 20.628906 -14.769531 20.546875 -14.0625 C 20.472656 -13.363281 20.390625 -12.648438 20.296875 -11.921875 C 20.160156 -11.179688 20.015625 -10.4375 19.859375 -9.6875 C 19.703125 -8.9375 19.476562 -8.179688 19.1875 -7.421875 C 18.9375 -6.679688 18.601562 -5.929688 18.1875 -5.171875 C 17.800781 -4.429688 17.289062 -3.710938 16.65625 -3.015625 C 16.5 -2.859375 16.332031 -2.695312 16.15625 -2.53125 C 15.976562 -2.375 15.8125 -2.21875 15.65625 -2.0625 C 15.300781 -1.769531 14.914062 -1.515625 14.5 -1.296875 C 14.082031 -1.035156 13.625 -0.816406 13.125 -0.640625 C 12.632812 -0.472656 12.117188 -0.351562 11.578125 -0.28125 C 10.460938 -0.15625 9.394531 -0.332031 8.375 -0.8125 C 7.894531 -1.039062 7.457031 -1.304688 7.0625 -1.609375 C 6.664062 -1.910156 6.304688 -2.21875 5.984375 -2.53125 C 5.347656 -3.207031 4.820312 -3.921875 4.40625 -4.671875 C 3.988281 -5.421875 3.632812 -6.175781 3.34375 -6.9375 C 3.0625 -7.675781 2.84375 -8.457031 2.6875 -9.28125 C 2.582031 -9.664062 2.5 -10.066406 2.4375 -10.484375 L 2.390625 -11.0625 L 2.34375 -11.578125 C 2.28125 -12.316406 2.222656 -13.046875 2.171875 -13.765625 C 2.128906 -14.484375 2.09375 -15.191406 2.0625 -15.890625 C 1.894531 -18.765625 1.851562 -21.617188 1.9375 -24.453125 C 2.019531 -27.296875 2.125 -30.117188 2.25 -32.921875 L 6.84375 -32.6875 C 6.71875 -29.875 6.625 -27.085938 6.5625 -24.328125 C 6.5 -21.578125 6.53125 -18.84375 6.65625 -16.125 C 6.65625 -15.425781 6.675781 -14.738281 6.71875 -14.0625 C 6.769531 -13.394531 6.828125 -12.710938 6.890625 -12.015625 L 6.9375 -11.53125 L 7.03125 -11.109375 C 7.0625 -10.785156 7.109375 -10.476562 7.171875 -10.1875 C 7.304688 -9.613281 7.46875 -9.054688 7.65625 -8.515625 C 8.070312 -7.367188 8.613281 -6.445312 9.28125 -5.75 C 9.570312 -5.425781 9.890625 -5.1875 10.234375 -5.03125 C 10.429688 -4.925781 10.59375 -4.875 10.71875 -4.875 C 10.8125 -4.84375 10.957031 -4.84375 11.15625 -4.875 C 11.46875 -4.90625 11.800781 -5.035156 12.15625 -5.265625 C 12.375 -5.390625 12.566406 -5.515625 12.734375 -5.640625 C 12.828125 -5.710938 12.921875 -5.796875 13.015625 -5.890625 C 13.109375 -5.984375 13.1875 -6.0625 13.25 -6.125 C 13.445312 -6.3125 13.613281 -6.507812 13.75 -6.71875 C 13.894531 -6.925781 14.035156 -7.160156 14.171875 -7.421875 C 14.296875 -7.640625 14.421875 -7.875 14.546875 -8.125 C 14.671875 -8.382812 14.785156 -8.660156 14.890625 -8.953125 C 15.078125 -9.523438 15.234375 -10.113281 15.359375 -10.71875 C 15.484375 -11.320312 15.613281 -11.960938 15.75 -12.640625 C 15.84375 -13.273438 15.925781 -13.9375 16 -14.625 C 16.082031 -15.3125 16.15625 -15.988281 16.21875 -16.65625 C 16.476562 -19.332031 16.59375 -22.050781 16.5625 -24.8125 C 16.53125 -27.570312 16.46875 -30.34375 16.375 -33.125 Z M 20.96875 -33.3125 "/></g></g></g><g fill="#00507d" fill-opacity="1"><g transform="translate(339.617357, 317.936616)"><g><path d="M 19.4375 -33.359375 L 19.484375 -21.0625 C 19.484375 -20.007812 19.484375 -18.972656 19.484375 -17.953125 C 19.484375 -16.929688 19.46875 -15.894531 19.4375 -14.84375 L 19.4375 -12.921875 C 19.40625 -12.378906 19.390625 -11.859375 19.390625 -11.359375 C 19.390625 -10.867188 19.367188 -10.367188 19.328125 -9.859375 L 19.28125 -8.328125 L 19.234375 -6.84375 C 19.203125 -6.332031 19.175781 -5.828125 19.15625 -5.328125 C 19.144531 -4.835938 19.125 -4.351562 19.09375 -3.875 L 14.6875 -3.15625 C 14.019531 -4.78125 13.363281 -6.265625 12.71875 -7.609375 C 12.082031 -8.953125 11.429688 -10.273438 10.765625 -11.578125 L 9.765625 -13.59375 C 9.566406 -13.914062 9.390625 -14.242188 9.234375 -14.578125 C 9.078125 -14.910156 8.921875 -15.234375 8.765625 -15.546875 C 8.410156 -16.285156 8.070312 -16.972656 7.75 -17.609375 C 7.6875 -17.773438 7.613281 -17.941406 7.53125 -18.109375 C 7.457031 -18.285156 7.375 -18.472656 7.28125 -18.671875 L 7.078125 -19.140625 L 6.84375 -19.625 L 6.796875 -18.375 C 6.734375 -16.425781 6.671875 -14.515625 6.609375 -12.640625 C 6.578125 -10.722656 6.550781 -8.8125 6.53125 -6.90625 C 6.519531 -5.007812 6.515625 -3.109375 6.515625 -1.203125 L 1.921875 -1.203125 C 1.921875 -3.109375 1.925781 -5.023438 1.9375 -6.953125 C 1.957031 -8.890625 1.984375 -10.816406 2.015625 -12.734375 C 2.078125 -14.609375 2.140625 -16.535156 2.203125 -18.515625 L 2.25 -20.15625 L 2.390625 -22.96875 L 2.53125 -25.84375 L 2.6875 -28.671875 L 7.078125 -29.484375 C 7.398438 -28.742188 7.726562 -28.039062 8.0625 -27.375 C 8.394531 -26.707031 8.738281 -26.050781 9.09375 -25.40625 L 10.046875 -23.5 C 10.140625 -23.34375 10.226562 -23.179688 10.3125 -23.015625 C 10.394531 -22.859375 10.484375 -22.703125 10.578125 -22.546875 L 10.8125 -22.015625 L 11 -21.53125 L 11.25 -21.015625 L 11.484375 -20.53125 C 11.546875 -20.375 11.617188 -20.207031 11.703125 -20.03125 C 11.785156 -19.851562 11.859375 -19.6875 11.921875 -19.53125 C 12.203125 -18.925781 12.519531 -18.285156 12.875 -17.609375 C 13.03125 -17.296875 13.1875 -16.976562 13.34375 -16.65625 C 13.507812 -16.332031 13.671875 -16.015625 13.828125 -15.703125 L 14.84375 -13.734375 L 14.84375 -14.890625 C 14.84375 -15.910156 14.847656 -16.929688 14.859375 -17.953125 C 14.878906 -18.972656 14.890625 -19.992188 14.890625 -21.015625 L 14.84375 -33.359375 Z M 19.4375 -33.359375 "/></g></g></g><g fill="#00507d" fill-opacity="1"><g transform="translate(361.008434, 317.936616)"><g><path d="M 19.8125 -20.765625 C 19.875 -20.484375 19.910156 -20.195312 19.921875 -19.90625 C 19.941406 -19.625 19.953125 -19.320312 19.953125 -19 C 19.953125 -18.75 19.941406 -18.484375 19.921875 -18.203125 C 19.910156 -17.929688 19.890625 -17.65625 19.859375 -17.375 C 19.796875 -16.289062 19.644531 -15.203125 19.40625 -14.109375 C 19.164062 -13.023438 18.835938 -11.957031 18.421875 -10.90625 C 17.972656 -9.851562 17.453125 -8.847656 16.859375 -7.890625 C 16.273438 -6.941406 15.582031 -6.050781 14.78125 -5.21875 C 13.1875 -3.488281 11.335938 -2.164062 9.234375 -1.25 C 8.597656 -0.957031 7.910156 -0.71875 7.171875 -0.53125 L 7.171875 -0.4375 L 6.9375 -0.4375 C 5.46875 -0.0507812 4 0.140625 2.53125 0.140625 L 2.53125 -2.875 L 1.921875 -32.875 L 2.0625 -32.875 L 2.015625 -33.078125 C 3.097656 -33.328125 4.21875 -33.484375 5.375 -33.546875 C 6.539062 -33.609375 7.71875 -33.515625 8.90625 -33.265625 C 10.082031 -33.003906 11.195312 -32.601562 12.25 -32.0625 C 13.332031 -31.519531 14.304688 -30.835938 15.171875 -30.015625 C 16.066406 -29.179688 16.832031 -28.269531 17.46875 -27.28125 C 18.101562 -26.289062 18.613281 -25.253906 19 -24.171875 C 19.414062 -23.085938 19.6875 -21.953125 19.8125 -20.765625 Z M 15.3125 -17.703125 C 15.3125 -17.929688 15.316406 -18.15625 15.328125 -18.375 C 15.347656 -18.601562 15.359375 -18.828125 15.359375 -19.046875 C 15.359375 -19.234375 15.347656 -19.421875 15.328125 -19.609375 C 15.316406 -19.804688 15.296875 -20.003906 15.265625 -20.203125 C 15.171875 -21.023438 14.976562 -21.820312 14.6875 -22.59375 C 14.082031 -24.21875 13.207031 -25.554688 12.0625 -26.609375 C 10.882812 -27.722656 9.507812 -28.441406 7.9375 -28.765625 C 7.53125 -28.859375 7.085938 -28.90625 6.609375 -28.90625 L 7.078125 -5.359375 C 7.140625 -5.359375 7.195312 -5.363281 7.25 -5.375 C 7.300781 -5.394531 7.34375 -5.421875 7.375 -5.453125 C 8.90625 -6.128906 10.257812 -7.101562 11.4375 -8.375 C 12.582031 -9.582031 13.492188 -11.003906 14.171875 -12.640625 C 14.804688 -14.234375 15.1875 -15.921875 15.3125 -17.703125 Z M 15.3125 -17.703125 "/></g></g></g></svg>